Coordinates
version=1
nRows=23
nColumns=28
inDegrees=yes

Units are S.I. units (second, meters, Newtons, ...)
Angles are in degrees.

endheader
time	pelvis_tilt	pelvis_list	pelvis_rotation	pelvis_tx	pelvis_ty	pelvis_tz	hip_flexion_r	hip_adduction_r	hip_rotation_r	knee_angle_r	ankle_angle_r	subtalar_angle_r	mtp_angle_r	hip_flexion_l	hip_adduction_l	hip_rotation_l	knee_angle_l	socket_flexion	socket_adduction	socket_rotation	socket_tx	socket_ty	socket_tz	foot_flex	lumbar_extension	lumbar_bending	lumbar_rotation
      0.93333333	      9.89235899	     -1.48943918	     -9.89686931	      0.40520220	      1.03946377	      0.32941157	     -0.96076291	      0.99626563	     -6.99607734	    -23.26640300	      1.56262885	      2.12365655	     38.55216686	     11.76622372	     -2.27518612	     -5.89686767	    -77.57923531	    -11.32462029	      0.00000000	      0.00000000	      0.00000000	      0.07167117	      0.00000000	      2.22331120	    -20.40974282	      0.59119710	     14.48097831
      0.93750000	      9.95030885	     -1.38997595	    -10.17023747	      0.40988034	      1.04039248	      0.32991672	     -1.42331956	      0.78335930	     -6.97041218	    -22.98293852	      1.48775179	      2.47744111	     38.69778122	     11.99346291	     -2.15184226	     -5.88158916	    -76.87799736	    -11.32432336	      0.00000000	      0.00000000	      0.00000000	      0.07030395	      0.00000000	      2.19416949	    -20.44280658	      0.38356436	     14.67655711
      0.94166667	     10.29888554	     -1.26817803	    -10.36788036	      0.41480318	      1.04160540	      0.33016570	     -2.19529143	      0.35574113	     -7.49787411	    -22.66148293	      0.86547266	      3.48229374	     42.00792596	     11.77245531	     -1.87692520	     -5.75833746	    -75.94526123	    -11.32196865	      0.00000000	      0.00000000	      0.00000000	      0.06830845	      0.00000000	      2.14898590	    -20.77553463	      0.12367394	     14.88980837
      0.94583333	     10.32412508	     -1.17174394	    -10.64130314	      0.41937393	      1.04243948	      0.33070625	     -2.61285966	      0.17033794	     -7.38785041	    -22.39017901	      0.83843157	      3.66310125	     41.86526923	     12.02268663	     -1.75943879	     -5.70474745	    -75.17874847	    -11.32107922	      0.00000000	      0.00000000	      0.00000000	      0.06691820	      0.00000000	      2.10148221	    -20.78299968	     -0.08607444	     15.01700442
      0.95000000	     10.32952648	     -1.09250031	    -10.92197698	      0.42404835	      1.04319311	      0.33118208	     -3.00626419	     -0.01713774	     -7.32279646	    -22.13167569	      0.80003847	      3.86003390	     41.72815709	     12.21532937	     -1.63733471	     -5.62162398	    -74.29592130	    -11.31848782	      0.00000000	      0.00000000	      0.00000000	      0.06511491	      0.00000000	      2.03932662	    -20.77143289	     -0.25396517	     15.14497259
      0.95416667	     10.34110024	     -1.03808036	    -11.16782937	      0.42859813	      1.04393928	      0.33172809	     -3.40471313	     -0.16546831	     -7.29199084	    -21.87521423	      0.75759886	      4.07158022	     41.61914678	     12.44861521	     -1.57175821	     -5.52132422	    -73.46863502	    -11.31840442	      0.00000000	      0.00000000	      0.00000000	      0.06365503	      0.00000000	      1.99113354	    -20.76832354	     -0.41483379	     15.27551468
      0.95833333	     10.44872108	     -1.05141244	    -11.34472369	      0.43296596	      1.04478150	      0.33203107	     -3.94016929	     -0.25658377	     -7.24675516	    -21.54335842	      0.54895077	      4.59248258	     41.69250750	     12.59693059	     -1.51177865	     -5.29432829	    -72.65220924	    -11.31862204	      0.00000000	      0.00000000	      0.00000000	      0.06227817	      0.00000000	      2.07302920	    -20.91687974	     -0.50363565	     15.62086568
      0.96250000	     10.41493096	     -0.99743884	    -11.63173429	      0.43768477	      1.04538724	      0.33259391	     -4.27523453	     -0.42787361	     -7.27992270	    -21.32546227	      0.55440644	      4.74086157	     41.59970032	     12.75887561	     -1.43825152	     -5.19160176	    -71.63522712	    -11.31276343	      0.00000000	      0.00000000	      0.00000000	      0.06023799	      0.00000000	      1.93426244	    -20.86047784	     -0.65601429	     15.65919263
      0.96666667	     10.91329597	     -1.03641361	    -11.77684068	      0.44228353	      1.04662972	      0.33275357	     -5.25904827	     -0.67491486	     -7.61305695	    -20.95237507	      0.24319631	      6.05269395	     42.69323837	     12.27681162	     -1.26973026	     -4.90513702	    -70.47767947	    -11.31036283	      0.00000000	      0.00000000	      0.00000000	      0.05796901	      0.00000000	      1.90497368	    -21.43167455	     -0.79139249	     15.99017438
      0.97083333	     10.82899175	     -1.00604509	    -11.95342412	      0.44672862	      1.04707263	      0.33312421	     -5.53613001	     -0.77719363	     -7.57455605	    -20.73674848	      0.22293176	      6.15729071	     42.63744511	     12.59257657	     -1.21195316	     -4.64341062	    -69.55856191	    -11.30868599	      0.00000000	      0.00000000	      0.00000000	      0.05642516	      0.00000000	      1.84089934	    -21.35036551	     -0.88216972	     16.01923333
      0.97500000	     10.74844622	     -0.99687684	    -12.21758993	      0.45137164	      1.04740959	      0.33349654	     -5.73329084	     -0.90716492	     -7.58232958	    -20.72510187	      0.21927149	      6.17867686	     42.52790294	     12.74574875	     -1.15211410	     -4.41291132	    -68.43644994	    -11.30049835	      0.00000000	      0.00000000	      0.00000000	      0.05419354	      0.00000000	      1.92915780	    -21.22895368	     -0.89796043	     16.00450265
      0.97916667	     10.69503520	     -1.00567630	    -12.31072982	      0.45568566	      1.04797288	      0.33384003	     -6.18419699	     -0.92999232	     -7.49113016	    -20.19134238	      0.07516211	      6.54440294	     42.56814361	     13.08066095	     -1.13527708	     -4.05391660	    -67.54527356	    -11.30244730	      0.00000000	      0.00000000	      0.00000000	      0.05310054	      0.00000000	      1.71825198	    -21.25285325	     -0.97983128	     16.22507149
      0.98333333	     10.87338561	     -1.17678233	    -12.43328319	      0.46034510	      1.04865281	      0.33407925	     -6.85308055	     -0.91742327	     -7.67215138	    -19.82537893	     -0.34200588	      7.33298395	     43.06619006	     12.88453006	     -1.19744098	     -3.66967419	    -66.34133473	    -11.29837764	      0.00000000	      0.00000000	      0.00000000	      0.05067520	      0.00000000	      1.66961197	    -21.45296625	     -0.90174107	     16.53402142
      0.98750000	     10.79673073	     -1.21090996	    -12.67320587	      0.46455882	      1.04883378	      0.33443307	     -6.99194779	     -1.00869684	     -7.70169682	    -19.91695336	     -0.30412068	      7.32584499	     42.94485000	     13.13696029	     -1.22143854	     -3.41290569	    -65.33903606	    -11.29222021	      0.00000000	      0.00000000	      0.00000000	      0.04906191	      0.00000000	      1.75218169	    -21.43628684	     -0.93890930	     16.48804076
      0.99166667	     10.69507058	     -1.19480219	    -12.75892170	      0.46916598	      1.04916631	      0.33487299	     -7.39040757	     -1.03938483	     -7.63280244	    -19.44595674	     -0.26273461	      7.54923955	     42.94106835	     13.39587716	     -1.18180691	     -3.00958100	    -64.25500349	    -11.29108404	      0.00000000	      0.00000000	      0.00000000	      0.04751457	      0.00000000	      1.52434336	    -21.29971426	     -1.02301300	     16.58007473
      0.99583333	     10.60152905	     -1.24543814	    -13.01375714	      0.47331944	      1.04925291	      0.33529824	     -7.49500502	     -1.11123699	     -7.66492638	    -19.55094876	     -0.25601929	      7.55702532	     42.80739246	     13.61619108	     -1.22668998	     -2.69344162	    -63.16450775	    -11.28203194	      0.00000000	      0.00000000	      0.00000000	      0.04581049	      0.00000000	      1.65157331	    -21.30667365	     -1.04051394	     16.54611489
      1.00000000	     10.93867631	     -1.40337272	    -12.89655570	      0.47834809	      1.05007698	      0.33534934	     -8.57937821	     -1.11962568	     -8.12685874	    -18.69969789	     -1.04233699	      8.71733327	     45.30863290	     13.20685194	     -1.19526411	     -2.05065714	    -61.81929196	    -11.27481467	      0.00000000	      0.00000000	      0.00000000	      0.04348614	      0.00000000	      1.36666911	    -21.63842671	     -0.96275963	     16.74766200
      1.00416667	     10.80303412	     -1.50791266	    -13.01107829	      0.48277246	      1.05010998	      0.33570219	     -8.82661610	     -1.06003698	     -8.12330615	    -18.50031519	     -1.01475242	      8.76612094	     45.32142068	     13.44866585	     -1.29924894	     -1.60636378	    -60.70199686	    -11.26797594	      0.00000000	      0.00000000	      0.00000000	      0.04175482	      0.00000000	      1.30578129	    -21.53200281	     -0.89097578	     16.81404771
      1.00833333	     10.69057228	     -1.58987020	    -13.13124844	      0.48693637	      1.05014206	      0.33599596	     -9.04287036	     -1.02542865	     -8.05211629	    -18.36994094	     -1.03392404	      8.83168289	     45.32798665	     13.72206133	     -1.36409203	     -1.11696801	    -59.63735158	    -11.26473677	      0.00000000	      0.00000000	      0.00000000	      0.04038232	      0.00000000	      1.32913369	    -21.49359258	     -0.85152658	     16.86610825
      1.01250000	     10.55127841	     -1.72478576	    -13.21832761	      0.49154916	      1.05011340	      0.33642674	     -9.37116986	     -0.91291787	     -8.05568520	    -18.02878150	     -1.08838420	      8.95546171	     45.33354912	     13.90889443	     -1.52277305	     -0.65846502	    -58.44631834	    -11.25254419	      0.00000000	      0.00000000	      0.00000000	      0.03848625	      0.00000000	      1.16272925	    -21.35263687	     -0.74614906	     16.96596820
      1.01666667	     10.44241202	     -1.86653957	    -13.30679868	      0.49586549	      1.05007068	      0.33677611	     -9.66769747	     -0.80427013	     -8.01423690	    -17.78990908	     -1.15654119	      9.07461693	     45.34125648	     14.11967039	     -1.67420792	     -0.15762217	    -57.32279406	    -11.24566596	      0.00000000	      0.00000000	      0.00000000	      0.03694113	      0.00000000	      1.10737469	    -21.30531539	     -0.64602348	     17.05498516
      1.02083333	     10.33724411	     -1.99539398	    -13.40980603	      0.50007066	      1.04998950	      0.33715886	     -9.93148037	     -0.71161880	     -7.96323112	    -17.61308193	     -1.19723501	      9.16584918	     45.34870307	     14.34132506	     -1.81266578	      0.36498386	    -56.21173800	    -11.24103146	      0.00000000	      0.00000000	      0.00000000	      0.03557221	      0.00000000	      1.09039451	    -21.27363006	     -0.56816145	     17.12307729
      1.02500000	     10.20868634	     -2.16097951	    -13.47825130	      0.50450432	      1.04983803	      0.33752741	    -10.24318117	     -0.56597759	     -7.94365196	    -17.32714772	     -1.23918784	      9.27450226	     45.35509557	     14.52516080	     -2.00919503	      0.88587465	    -55.02090859	    -11.22503785	      0.00000000	      0.00000000	      0.00000000	      0.03387232	      0.00000000	      0.97835525	    -21.18837072	     -0.42957424	     17.21261083
